<?xml version="1.0" encoding="UTF-8"?><svg id="Livello_1" xmlns="http://www.w3.org/2000/svg" viewBox="0 0 200 200"><defs><style>.cls-1{fill:#1967d2;}.cls-1,.cls-2,.cls-3,.cls-4,.cls-5,.cls-6,.cls-7{stroke-width:0px;}.cls-2{fill:#34a853;}.cls-3{fill:#188038;}.cls-4{fill:#4285f4;}.cls-5{fill:#fff;}.cls-6{fill:#fbbc04;}.cls-7{fill:#ea4335;}</style></defs><path class="cls-5" d="m152.63,47.37l-47.37-5.26-57.9,5.26-5.26,52.63,5.26,52.63,52.63,6.58,52.63-6.58,5.26-53.95-5.26-51.32Z"/><path class="cls-7" d="m152.63,200l47.37-47.37-23.68-10.53-23.68,10.53-10.53,23.68,10.53,23.68Z"/><path class="cls-2" d="m36.84,176.32l10.53,23.68h105.26v-47.37H47.37l-10.53,23.68Z"/><path class="cls-4" d="m15.79,0C7.07,0,0,7.07,0,15.79v136.84l23.68,10.53,23.68-10.53V47.37h105.26l10.53-23.68L152.63,0H15.79Z"/><path class="cls-3" d="m0,152.63v31.58c0,8.72,7.07,15.79,15.79,15.79h31.58v-47.37H0Z"/><path class="cls-6" d="m152.63,47.37v105.26h47.37V47.37l-23.68-10.53-23.68,10.53Z"/><path class="cls-1" d="m200,47.37V15.79c0-8.72-7.07-15.79-15.79-15.79h-31.58v47.37h47.37Z"/></svg>